<?xml version="1.0" standalone="no"?>
<!DOCTYPE svg PUBLIC "-//W3C//DTD SVG 20010904//EN"
 "http://www.w3.org/TR/2001/REC-SVG-20010904/DTD/svg10.dtd">
<svg version="1.0" xmlns="http://www.w3.org/2000/svg"
 width="260.000000pt" height="260.000000pt" viewBox="0 0 260.000000 260.000000"
 preserveAspectRatio="xMidYMid meet">
<metadata>
Created by potrace 1.11, written by Peter Selinger 2001-2013
</metadata>
<g transform="translate(0.000000,260.000000) scale(0.100000,-0.100000)"
fill="#000000" stroke="none">
<path d="M640 2375 c-48 -22 -68 -42 -98 -100 -23 -44 -26 -63 -28 -168 -1
-65 2 -132 7 -149 4 -17 11 -47 14 -67 l5 -37 -57 -17 c-162 -50 -309 -159
-333 -247 -6 -24 -9 -63 -5 -86 6 -42 52 -117 86 -142 10 -7 24 -18 31 -25 21
-21 149 -83 208 -102 30 -10 58 -21 63 -24 4 -4 1 -37 -6 -72 -29 -137 -16
-301 29 -377 40 -69 134 -102 227 -78 23 5 28 1 50 -48 105 -229 332 -411 587
-470 86 -19 277 -19 366 1 117 26 269 98 344 163 160 136 251 281 300 477 27
106 23 315 -8 417 -46 149 -115 267 -220 372 -127 128 -285 208 -480 245 -50
9 -62 15 -58 28 4 15 15 77 22 126 5 35 4 179 -1 210 -10 52 -49 118 -88 149
-36 29 -45 31 -115 30 -56 0 -90 -6 -125 -22 -64 -29 -145 -83 -206 -138 l-49
-44 -33 31 c-60 54 -155 118 -214 145 -72 33 -165 41 -215 19z m189 -95 c75
-36 211 -139 211 -160 0 -3 -14 -21 -31 -39 -17 -19 -49 -59 -72 -90 -53 -71
-58 -76 -82 -78 -82 -8 -141 -16 -168 -24 -70 -20 -76 -12 -92 115 -33 258 54
361 234 276z m732 1 c47 -49 64 -143 47 -264 -11 -82 -18 -119 -24 -129 -5 -8
-79 -2 -94 7 -6 3 -113 16 -147 18 -7 0 -51 48 -99 105 l-87 106 30 25 c126
111 219 161 296 161 42 0 54 -5 78 -29z m-375 -317 c13 -17 24 -33 24 -35 0
-2 -49 -4 -110 -4 -60 0 -110 2 -110 4 0 6 83 105 99 119 16 13 35 -2 97 -84z
m105 -143 l20 -24 -58 -26 c-32 -14 -71 -35 -86 -45 -16 -11 -50 -21 -75 -23
-84 -7 -161 -83 -162 -160 0 -12 -17 -49 -37 -81 -21 -33 -43 -68 -49 -78 -9
-16 -16 -7 -52 61 -23 44 -42 84 -42 90 0 13 70 141 127 232 29 48 52 73 66
75 12 2 91 4 175 3 150 0 154 -1 173 -24z m-496 -33 c-14 -24 -40 -69 -57
-101 -17 -31 -33 -56 -35 -54 -5 5 -63 167 -60 168 8 2 154 27 165 28 8 1 4
-14 -13 -41z m-225 -23 c0 -8 4 -23 9 -33 5 -9 25 -58 44 -109 l36 -91 -18
-39 c-11 -21 -31 -74 -47 -118 -15 -44 -29 -82 -30 -84 -5 -6 -109 31 -172 62
-139 68 -200 157 -159 230 36 65 156 143 280 182 56 17 57 17 57 0z m1255 -59
c28 -13 70 -42 95 -65 l45 -42 -50 24 c-61 30 -183 67 -216 66 -22 -1 -21 -1
6 -11 96 -34 178 -133 191 -232 l6 -43 -53 -31 c-47 -26 -188 -82 -207 -82 -4
0 -14 21 -21 48 -8 26 -29 81 -46 123 -33 75 -33 75 -15 112 10 20 29 66 41
101 13 37 30 67 39 69 31 6 136 -15 185 -37z m-285 28 c0 -42 -70 -61 -90 -25
-8 16 -6 20 13 24 35 7 77 8 77 1z m-161 -51 c8 -14 -1 -21 -57 -45 -36 -15
-66 -27 -67 -25 0 1 -6 9 -13 19 -11 14 -6 19 40 42 63 30 84 32 97 9z m134
-20 c-11 -33 -16 -36 -26 -18 -7 12 -5 20 4 26 22 13 29 11 22 -8z m-79 -85
c22 -43 21 -51 -20 -126 -76 -139 -86 -154 -98 -142 -19 19 -12 149 11 200 23
52 71 112 83 105 5 -3 16 -19 24 -37z m690 -45 c253 -253 298 -618 115 -931
-19 -31 -70 -93 -115 -137 -207 -206 -503 -270 -784 -170 -167 59 -324 202
-409 372 l-31 62 21 15 c20 14 23 11 60 -62 68 -137 177 -244 314 -311 81 -39
213 -77 237 -68 8 3 6 6 -5 6 -33 2 -114 49 -147 87 -36 41 -66 102 -74 149
-3 18 -27 53 -58 85 -55 58 -111 152 -123 208 l-7 33 22 -18 c12 -10 30 -25
39 -33 58 -55 180 -123 246 -137 112 -25 205 24 240 126 28 80 38 94 80 108
125 42 247 141 295 241 14 28 28 51 32 52 4 0 17 -33 30 -72 59 -195 -2 -412
-151 -538 -38 -32 -54 -54 -62 -84 -21 -82 -127 -196 -182 -196 -9 0 -17 -5
-17 -10 0 -11 18 -8 110 17 144 40 287 142 372 267 88 129 126 252 126 409 0
179 -64 341 -188 473 -37 40 -70 114 -51 114 4 0 33 -26 65 -57z m-1374 -179
c0 -3 11 -22 25 -44 30 -47 24 -72 -14 -65 -14 2 -44 7 -66 11 -22 3 -43 8
-47 10 -4 3 4 35 18 72 14 37 28 75 31 85 5 15 10 10 29 -23 13 -23 24 -44 24
-46z m784 -8 c14 -38 23 -72 21 -76 -6 -9 -154 -34 -161 -27 -5 4 12 36 53
102 7 11 20 35 28 54 19 43 27 36 59 -53z m-535 52 c19 -11 18 -13 -8 -64 -16
-28 -34 -67 -40 -85 l-12 -34 -19 23 c-22 26 -23 19 33 130 25 48 21 46 46 30z
m877 -125 c-22 -57 -112 -139 -173 -157 -18 -6 -22 -2 -28 26 -4 18 -9 40 -11
50 -4 12 10 21 58 37 35 12 79 30 98 41 45 24 64 25 56 3z m-1151 -102 l40 -6
-5 -45 c-10 -110 -4 -236 15 -326 7 -30 5 -31 -30 -37 -96 -16 -159 67 -159
208 1 17 15 149 19 165 13 59 15 62 48 54 18 -4 50 -10 72 -13z m859 11 c2 -4
7 -24 10 -46 l6 -39 -44 6 c-25 4 -67 17 -93 29 l-48 22 33 8 c17 4 47 12 65
16 44 11 66 12 71 4z m-678 -175 c1 -62 4 -123 8 -136 6 -26 -8 -51 -29 -51
-26 0 -41 242 -19 312 6 19 7 19 23 4 13 -13 16 -39 17 -129z m278 117 c4 -10
-9 -34 -35 -65 -22 -27 -42 -49 -44 -49 -5 0 7 85 16 108 10 26 54 31 63 6z
m103 -114 c37 -33 107 -70 167 -90 44 -14 116 -81 116 -108 0 -55 -97 -72
-184 -34 -62 28 -161 99 -206 148 -19 22 -31 36 -26 32 8 -7 75 59 76 75 0 15
24 6 57 -23z"/>
</g>
</svg>
